<svg xmlns="http://www.w3.org/2000/svg" width="512" height="512" viewBox="0 0 512 512"><defs><linearGradient id="stream" x1="0%" y1="0%" x2="80%" y2="100%"><stop stop-color="#8dafff" stop-opacity="0"/><stop offset=".5" stop-color="#b2deff" stop-opacity=".7"/><stop offset="1" stop-color="#9b61ed" stop-opacity="0"/></linearGradient><radialGradient id="star"><stop stop-color="#ecfaff"/><stop offset=".15" stop-color="#a8dbff" stop-opacity=".8"/><stop offset="1" stop-color="#a879fa" stop-opacity="0"/></radialGradient></defs>
<g fill="none" stroke="url(#stream)" stroke-linecap="round"><path d="M187 32 C426 45 484 347 241 465" stroke-width="1.5"/><path d="M327 101 C435 228 411 351 312 423" stroke-width=".8"/><path d="M179 455 Q104 477 48 453" stroke-width="1.4"/><path d="M171 71 Q94 24 45 55" stroke-width="1.2"/></g>
<circle cx="363" cy="217" r="28" fill="url(#star)" opacity=".8"/><path d="M363 194L366 213L383 217L367 220L363 241L360 222L346 217L360 214Z" fill="#ccecff" opacity=".9"/>
<g fill="#a7caff"><path d="M401 144l3 11-4 8-2-11Z"/><path d="M413 270l3 8-5 13-1-11Z"/><path d="M353 371l3 7-6 14-1-10Z"/><path d="M287 430l3 6-13 8 4-8Z"/><path d="M224 47l6 3 5 9-9-5Z"/></g>
<g fill="#b883f7" opacity=".8"><path d="M431 218l2 8-3 9-2-7Z"/><path d="M369 332l3 6-4 11-3-7Z"/><path d="M209 474l5 3-10 7-5-2Z"/></g>
<g stroke="#b3d9ff" stroke-width="1" stroke-linecap="round" opacity=".7"><path d="M396 129l-9-20M429 271l3-17M382 365l10-15M293 457l14-9M169 486l18-4"/></g>
<g fill="#c6dfff"><circle cx="403" cy="192" r="1.3"/><circle cx="426" cy="246" r="1"/><circle cx="396" cy="332" r="1.5"/><circle cx="328" cy="431" r="1.1"/><circle cx="237" cy="484" r="1.4"/><circle cx="272" cy="64" r="1.2"/></g></svg>
